<svg width="189" height="380" viewBox="0 0 189 380" fill="none" xmlns="http://www.w3.org/2000/svg">
<g clip-path="url(#clip0_852_16410)">
<mask id="mask0_852_16410" style="mask-type:alpha" maskUnits="userSpaceOnUse" x="-191" y="0" width="380" height="380">
<circle cx="-1" cy="190" r="190" fill="black"/>
</mask>
<g mask="url(#mask0_852_16410)">
<path fill-rule="evenodd" clip-rule="evenodd" d="M0.5 0.75C0.5 0.335786 0.164215 0 -0.25 0C-0.664215 0 -1 0.335786 -1 0.75V182.835L-16.8322 1.87226C-16.8683 1.45962 -17.2321 1.15438 -17.6447 1.19048C-18.0573 1.22658 -18.3626 1.59035 -18.3265 2.00299L-2.92207 178.076L-33.6089 4.04271C-33.6808 3.63478 -34.0698 3.36241 -34.4777 3.43434C-34.8857 3.50626 -35.158 3.89525 -35.0861 4.30318L-4.63934 176.976L-50.1427 7.15448C-50.25 6.75438 -50.6612 6.51694 -51.0613 6.62415C-51.4614 6.73135 -51.6988 7.1426 -51.5916 7.54271L-8.59853 167.995L-65.2849 12.2506C-65.4266 11.8614 -65.8569 11.6607 -66.2462 11.8024C-66.6354 11.944 -66.8361 12.3744 -66.6944 12.7636L-7.73395 174.756L-80.2582 19.2275C-80.4333 18.8521 -80.8795 18.6897 -81.2549 18.8648C-81.6303 19.0398 -81.7927 19.4861 -81.6177 19.8615L-16.1077 160.348L-93.6594 26.0245C-93.8665 25.6658 -94.3252 25.5429 -94.6839 25.75C-95.0427 25.9571 -95.1656 26.4158 -94.9585 26.7745L-8.8342 175.946L-4.41533 185.422L-109.897 34.7792C-110.134 34.4398 -110.602 34.3574 -110.941 34.595C-111.281 34.8326 -111.363 35.3002 -111.126 35.6395L-12.9212 175.89L-122.316 45.518C-122.582 45.2007 -123.056 45.1593 -123.373 45.4256C-123.69 45.6918 -123.732 46.1649 -123.465 46.4822L-13.7082 177.286L-134.486 56.5082C-134.778 56.2153 -135.253 56.2153 -135.546 56.5082C-135.839 56.8011 -135.839 57.276 -135.546 57.5689L-15.5255 177.59L-145.122 68.8452C-145.439 68.579 -145.912 68.6204 -146.179 68.9377C-146.445 69.255 -146.404 69.7281 -146.086 69.9943L-16.6624 178.594L-155.675 81.2561C-156.014 81.0185 -156.482 81.1009 -156.72 81.4402C-156.957 81.7795 -156.875 82.2472 -156.535 82.4848L-25.3772 174.323L-163.473 94.5933C-163.831 94.3862 -164.29 94.5091 -164.497 94.8679C-164.704 95.2266 -164.581 95.6853 -164.223 95.8924L-11.2792 184.194L-4.68556 188.811L-172.053 110.767C-172.428 110.592 -172.874 110.754 -173.049 111.129C-173.224 111.505 -173.062 111.951 -172.686 112.126L-19.9191 183.363L-179.283 125.359C-179.673 125.217 -180.103 125.418 -180.245 125.807C-180.386 126.196 -180.186 126.627 -179.796 126.768L-21.1675 184.505L-183.636 140.971C-184.036 140.864 -184.447 141.102 -184.555 141.502C-184.662 141.902 -184.424 142.313 -184.024 142.42L-14.1391 187.941L-186.45 157.558C-186.858 157.486 -187.247 157.758 -187.319 158.166C-187.391 158.574 -187.118 158.963 -186.71 159.035L-17.0675 188.948L-189.004 173.905C-189.416 173.869 -189.78 174.174 -189.816 174.587C-189.852 175 -189.547 175.363 -189.135 175.399L-22.2496 190L-190.25 190C-190.664 190 -191 190.336 -191 190.75C-191 191.164 -190.664 191.5 -190.25 191.5L-12.9172 191.5L-188.867 206.894C-189.28 206.93 -189.585 207.293 -189.549 207.706C-189.513 208.119 -189.149 208.424 -188.737 208.388L-17.8704 193.439L-187.124 223.283C-187.532 223.355 -187.804 223.744 -187.732 224.152C-187.66 224.56 -187.271 224.832 -186.864 224.76L-23.6927 195.989L-183.961 238.933C-184.361 239.04 -184.599 239.451 -184.492 239.851C-184.384 240.251 -183.973 240.489 -183.573 240.382L-13.56 194.827L-178.39 254.82C-178.779 254.962 -178.98 255.392 -178.838 255.781C-178.697 256.17 -178.266 256.371 -177.877 256.229L-8.48567 194.576L-171.795 270.729C-172.171 270.904 -172.333 271.35 -172.158 271.725C-171.983 272.101 -171.537 272.263 -171.161 272.088L-16.1746 199.817L-164.228 285.295C-164.587 285.502 -164.709 285.961 -164.502 286.32C-164.295 286.678 -163.837 286.801 -163.478 286.594L-27.2504 207.943L-156.372 298.355C-156.711 298.593 -156.794 299.06 -156.556 299.4C-156.319 299.739 -155.851 299.822 -155.512 299.584L-12.3456 199.338L-8.72299 197.246L-145.644 312.137C-145.962 312.403 -146.003 312.876 -145.737 313.194C-145.471 313.511 -144.998 313.552 -144.68 313.286L-13.8239 203.485L-134.486 324.146C-134.778 324.439 -134.778 324.914 -134.486 325.207C-134.193 325.5 -133.718 325.5 -133.425 325.207L-7.64763 199.43L-121.794 335.464C-122.06 335.781 -122.019 336.254 -121.701 336.521C-121.384 336.787 -120.911 336.745 -120.645 336.428L-16.0142 211.734L-109.208 344.828C-109.445 345.167 -109.363 345.635 -109.023 345.873C-108.684 346.11 -108.216 346.028 -107.979 345.688L-5.06569 198.713L-94.9585 354.412C-95.1656 354.771 -95.0427 355.23 -94.684 355.437C-94.3252 355.644 -93.8666 355.521 -93.6594 355.162L-8.10373 206.975L-80.5156 362.263C-80.6907 362.639 -80.5283 363.085 -80.1529 363.26C-79.7775 363.435 -79.3312 363.272 -79.1562 362.897L-11.6159 218.057L-66.1632 367.924C-66.3049 368.313 -66.1042 368.744 -65.7149 368.885C-65.3257 369.027 -64.8953 368.826 -64.7537 368.437L-4.34238 202.458L-3.97704 201.675L-49.8169 372.752C-49.9241 373.152 -49.6867 373.563 -49.2866 373.67C-48.8865 373.777 -48.4752 373.54 -48.368 373.14L-1.35098 197.67L-32.9353 376.793C-33.0072 377.201 -32.7348 377.59 -32.3269 377.662C-31.919 377.734 -31.53 377.462 -31.4581 377.054L-2.37233 212.1L-16.9683 378.933C-17.0044 379.346 -16.6992 379.709 -16.2865 379.745C-15.8739 379.782 -15.5101 379.476 -15.474 379.064L-1.00002 213.625V379.25C-1.00002 379.664 -0.66423 380 -0.250015 380C0.1642 380 0.499985 379.664 0.499985 379.25V217.191L14.6619 379.063C14.698 379.475 15.0618 379.781 15.4745 379.744C15.8871 379.708 16.1923 379.345 16.1562 378.932L1.56653 212.171L30.6397 377.053C30.7116 377.461 31.1006 377.733 31.5085 377.661C31.9165 377.589 32.1888 377.2 32.1169 376.792L2.80374 210.549L46.3713 373.146C46.4785 373.546 46.8898 373.783 47.2899 373.676C47.69 373.569 47.9274 373.158 47.8202 372.757L1.74226 200.792L62.7601 368.437C62.9018 368.827 63.3322 369.027 63.7214 368.886C64.1107 368.744 64.3114 368.314 64.1697 367.924L5.42595 206.527L78.3433 362.899C78.5184 363.274 78.9646 363.437 79.34 363.262C79.7154 363.087 79.8778 362.64 79.7028 362.265L4.18993 200.327L10.1873 208.892L94.2915 354.565C94.4986 354.924 94.9573 355.047 95.316 354.84C95.6748 354.633 95.7977 354.174 95.5906 353.815L20.0589 222.99L105.973 345.689C106.211 346.028 106.678 346.11 107.018 345.873C107.357 345.635 107.439 345.168 107.202 344.828L11.4536 208.086L9.94832 205.478L119.83 336.43C120.096 336.747 120.569 336.789 120.886 336.522C121.204 336.256 121.245 335.783 120.979 335.466L9.52423 202.639L132.094 325.209C132.387 325.502 132.861 325.502 133.154 325.209C133.447 324.916 133.447 324.441 133.154 324.148L9.82843 200.822L143.862 313.289C144.179 313.556 144.652 313.514 144.918 313.197C145.184 312.88 145.143 312.407 144.826 312.14L10.6198 199.528L153.514 299.583C153.853 299.821 154.321 299.739 154.558 299.399C154.796 299.06 154.713 298.592 154.374 298.355L10.2193 197.417L17.5146 200.818L163.568 285.142C163.927 285.35 164.385 285.227 164.592 284.868C164.8 284.509 164.677 284.05 164.318 283.843L33.1125 208.092L170.351 272.087C170.726 272.262 171.173 272.1 171.348 271.724C171.523 271.349 171.36 270.903 170.985 270.728L18.2077 199.487L15.1593 197.727L175.877 256.223C176.266 256.365 176.697 256.164 176.839 255.775C176.98 255.386 176.78 254.955 176.39 254.814L11.6292 194.845L181.579 240.383C181.979 240.491 182.39 240.253 182.497 239.853C182.604 239.453 182.367 239.042 181.967 238.934L19.4341 195.384L186.039 224.761C186.447 224.833 186.836 224.56 186.908 224.152C186.98 223.745 186.708 223.356 186.3 223.284L17.0266 193.436L187.925 208.388C188.338 208.424 188.702 208.119 188.738 207.706C188.774 207.293 188.469 206.93 188.056 206.894L12.1061 191.5L188.25 191.5C188.664 191.5 189 191.164 189 190.75C189 190.336 188.664 190 188.25 190L21.4385 190L188.323 175.399C188.736 175.363 189.041 175 189.005 174.587C188.969 174.174 188.605 173.869 188.192 173.905L16.224 188.95L185.886 159.034C186.294 158.963 186.566 158.574 186.495 158.166C186.423 157.758 186.034 157.485 185.626 157.557L9.8808 188.546L182.03 142.419C182.43 142.311 182.667 141.9 182.56 141.5C182.453 141.1 182.042 140.863 181.642 140.97L19.2369 184.486L177.797 126.775C178.186 126.633 178.387 126.203 178.245 125.814C178.103 125.424 177.673 125.224 177.284 125.365L23.2851 181.416L171.876 112.127C172.252 111.952 172.414 111.506 172.239 111.13C172.064 110.755 171.618 110.592 171.242 110.768L14.3283 183.938L164.313 97.3442C164.672 97.137 164.794 96.6784 164.587 96.3196C164.38 95.9609 163.922 95.838 163.563 96.0451L5.37512 187.375L8.57945 184.686L154.537 82.4853C154.877 82.2477 154.959 81.78 154.721 81.4407C154.484 81.1014 154.016 81.019 153.677 81.2565L21.7635 173.623L145.268 69.9911C145.585 69.7249 145.626 69.2518 145.36 68.9345C145.094 68.6172 144.621 68.5758 144.303 68.8421L11.5299 180.252L134.215 57.5672C134.508 57.2743 134.508 56.7994 134.215 56.5065C133.922 56.2136 133.447 56.2136 133.154 56.5065L15.5847 174.076L122.65 46.4803C122.917 46.163 122.875 45.6899 122.558 45.4237C122.241 45.1574 121.767 45.1988 121.501 45.5161L4.92012 184.452L109.12 35.6394C109.357 35.3001 109.275 34.8324 108.936 34.5948C108.596 34.3573 108.129 34.4397 107.891 34.779L13.4112 169.71L95.5906 27.3716C95.7977 27.0128 95.6748 26.5541 95.316 26.347C94.9573 26.1399 94.4986 26.2628 94.2915 26.6216L7.7751 176.472L80.8049 19.8595C80.9799 19.4841 80.8175 19.0379 80.4421 18.8628C80.0667 18.6878 79.6205 18.8502 79.4454 19.2256L2.56592 184.094L2.77666 182.899L64.701 12.7633C64.8427 12.3741 64.642 11.9437 64.2527 11.8021C63.8635 11.6604 63.4331 11.8611 63.2914 12.2503L6.58746 168.043L49.595 7.53688C49.7022 7.13678 49.4648 6.72552 49.0647 6.61832C48.6646 6.51111 48.2533 6.74855 48.1461 7.14865L6.09203 164.097L34.2678 4.30395C34.3397 3.89603 34.0674 3.50704 33.6594 3.43511C33.2515 3.36318 32.8625 3.63556 32.7906 4.04348L2.11627 178.006L17.5145 2.00401C17.5506 1.59137 17.2453 1.22759 16.8327 1.19149C16.42 1.15539 16.0563 1.46064 16.0202 1.87327L0.5 179.27V0.75Z" fill="url(#paint0_linear_852_16410)"/>
</g>
</g>
<defs>
<linearGradient id="paint0_linear_852_16410" x1="-0.996078" y1="0" x2="-0.996078" y2="380" gradientUnits="userSpaceOnUse">
<stop stop-color="#150F96"/>
<stop offset="1" stop-color="#0091A0"/>
</linearGradient>
<clipPath id="clip0_852_16410">
<rect width="189" height="380" fill="white"/>
</clipPath>
</defs>
</svg>
