<svg xmlns="http://www.w3.org/2000/svg" width="19" height="24"><path fill-rule="evenodd" d="M15.856 13.21c0 2.243 1.374 4.079 3.153 4.381-.359 1.335-.89 2.585-1.555 3.619-.535 1.619-1.995 2.79-3.733 2.79-.057 0-.11-.011-.167-.013-.046.002-.091.013-.138.013-1.071 0-1.742-.103-3.124-.8H9.5c-1.303.597-1.977.8-3.097.8-1.605 0-2.98-.998-3.603-2.426-1.683-1.95-2.8-5.206-2.8-8.328 0-2.401.662-3.981 1.733-4.97.949-1.246 2.414-2.048 4.06-2.048 1.377 0 2.625.563 3.554 1.474.173.104.341.219.502.344.949-1.113 2.33-1.818 3.872-1.818 1.965 0 3.661 1.146 4.54 2.824-1.401.623-2.405 2.241-2.405 4.158zM9.764 6.099c.058-3.01 2.125-5.507 4.866-6.09-.058 3.011-2.125 5.508-4.866 6.09z"/></svg>