<svg xmlns="http://www.w3.org/2000/svg" viewBox="0 0 237 47" fill="none"><path fill="#fff" d="M173.587 11.051a.39.39 0 0 0-.385-.385h-8.207a.388.388 0 0 0-.385.385v14.745c0 1.251-.974 2.41-1.874 2.82-1.712.778-3.774.1-3.774-2.707V11.05a.388.388 0 0 0-.383-.385h-8.152a.384.384 0 0 0-.385.385V27.1c0 5.246 4.557 7.814 8.68 7.304 1.665-.214 3.098-1.114 4.48-2.268a13.19 13.19 0 0 0 1.284-1.348h.186v2.594a6.26 6.26 0 0 1-5.524 6.262c-3.261.377-5.991-1.32-8.16-2.822a.17.17 0 0 0-.165-.017l-.319.126a.142.142 0 0 0-.087.128l-.191 7.09a.6.6 0 0 0 .351.563c3.507 1.677 11.339 2.044 16.376-.895 3.446-2.014 6.58-5.914 6.58-11.261l.054-21.504zM10.478.967H1.383A.385.385 0 0 0 1 1.352V33.36a.385.385 0 0 0 .383.386H20.52a.387.387 0 0 0 .383-.345l.428-4.168a.406.406 0 0 0-.415-.447l-10.055.265V1.352a.387.387 0 0 0-.385-.385m222.579 14.432c-2.14-3.334-5.648-5.758-10.841-5.602h-.015c-5.192.156-8.557 2.546-10.502 6.004-2.525 4.493-1.891 10.58.824 14.049 2.64 3.378 6.112 4.921 10.429 4.784h.015a12.708 12.708 0 0 0 10.004-5.417c2.499-3.625 2.878-9.477.086-13.816v-.002zm-5.941 14.04c-2.046 1.243-5.349-.642-8.143-5.216-2.852-4.66-2.668-8.456-.984-9.432 1.684-.976 4.921.173 7.944 5.195 2.642 4.408 3.029 8.334 1.183 9.453zM85.035 13.871s.734-.642.933-.83c1.615-1.581 3.209-2.673 5.212-2.97 4.473-.668 8.666 1.91 8.664 7.157V33.36a.387.387 0 0 1-.385.385h-8.151a.388.388 0 0 1-.385-.385V18.747c.021-2.781-2.12-3.558-3.772-2.676-1.106.59-1.876 1.65-1.876 2.901v14.387a.385.385 0 0 1-.383.385h-8.2a.385.385 0 0 1-.386-.385l.053-22.31a.386.386 0 0 1 .384-.383h7.15a.642.642 0 0 1 .629.522l.513 2.683zM118.723 0a.383.383 0 0 0-.383.383l-.024 12.023h-.256c-2.803-3.18-7.672-2.683-9.842-1.671-3.277 1.527-6.459 5.385-6.461 11.055 0 9.765 5.349 12.682 9.673 12.682 1.035 0 2.674-.484 3.851-1.203a23.386 23.386 0 0 0 3.162-2.274l.481 2.242a.641.641 0 0 0 .625.507h7.357a.388.388 0 0 0 .385-.385V.385a.385.385 0 0 0-.385-.385h-8.183zm-4.921 29.123c-2.317-.79-3.654-3.21-3.654-7.812 0-4.213 1.712-6.588 4.163-6.886 2.223-.27 4.008 1.543 4.008 3.625v9.106c-.214 1.875-2.752 2.568-4.517 1.967zm30.907-19.013c-2.715-.347-3.695.104-4.707 2.54-.316.765-.785 2.184-1.095 3.166h-.497l-.759-4.622a.642.642 0 0 0-.642-.537h-6.506a.385.385 0 0 0-.383.385V33.35a.384.384 0 0 0 .383.386h8.23a.384.384 0 0 0 .383-.386V23.161c0-4.694 2.767-5.289 5.377-5.021.84.093 1.663.304 2.445.624a.38.38 0 0 0 .514-.297l1.127-6.997a.377.377 0 0 0-.265-.428c-.685-.214-2.336-.768-3.601-.93M38.487 11.148l-.464 2.047a7.83 7.83 0 0 0-2.797-2.353c-1.805-.856-4.302-1.027-6.204-.512-3.872 1.057-7.428 5.052-7.743 10.572-.194 3.424.734 7.33 2.8 10.018 1.828 2.375 5.09 3.71 7.56 3.539 2.353-.165 5.41-2.465 6.377-3.32l.475 2.107a.642.642 0 0 0 .625.5h6.98a.385.385 0 0 0 .384-.385v-22.31a.385.385 0 0 0-.383-.385h-6.99a.641.641 0 0 0-.62.482zm-4.09 18.26c-3.516-.193-4.921-3.317-4.921-7.828 0-3.269 1.369-6.8 4.065-7.12 2.139-.253 4.103 1.67 4.103 3.466v9.628c0 .856-1.412 1.965-3.241 1.864m164.075-16.084 8.226-4.726a.39.39 0 0 0 .13-.548c-2.725-4.185-7.727-7.865-14.43-7.872a17.044 17.044 0 0 0-15.394 9.53c-2.567 5.189-2.524 11.967 1.301 17.409a17.231 17.231 0 0 0 14.172 7.345c5.441 0 9.501-2.822 10.513-6.81l.33-.041 3.703 5.948a.39.39 0 0 0 .323.175h.655a.384.384 0 0 0 .385-.385l.013-16.976a.39.39 0 0 0-.112-.272.381.381 0 0 0-.271-.113h-13.554a.385.385 0 0 0-.385.383v.736a.347.347 0 0 0 .214.34c2.296.72 5.034 3.037 5.404 5.651.242 1.712-.267 2.782-.973 3.469-1.07 1.03-2.764 1.318-4.354.982-2.751-.58-5.417-2.613-7.65-6.023-2.029-3.103-3.182-7.528-2.442-10.624.343-1.435.989-2.567 2.031-3.276 1.097-.74 2.394-.911 3.671-.719 4.035.612 6.632 4.066 7.97 6.285a.388.388 0 0 0 .53.143M64.166 30.61s-1.035 1.07-1.251 1.254c-1.03.828-2.14 2.225-4.673 2.546-3.85.485-8.81-1.866-8.81-7.35V11.051a.385.385 0 0 1 .383-.385h8.153a.385.385 0 0 1 .383.385v15.252c0 2.325 1.945 3.181 3.68 2.248 1.091-.586 1.968-1.797 1.968-3.098V11.051a.387.387 0 0 1 .385-.385h8.207a.387.387 0 0 1 .385.385V33.36a.385.385 0 0 1-.382.385h-7.018a.642.642 0 0 1-.616-.46c-.36-1.239-.794-2.674-.794-2.674z"/></svg>